<?xml version="1.0" standalone="no"?>
<!DOCTYPE svg PUBLIC "-//W3C//DTD SVG 20010904//EN"
 "http://www.w3.org/TR/2001/REC-SVG-20010904/DTD/svg10.dtd">
<svg version="1.0" xmlns="http://www.w3.org/2000/svg"
 width="512.000000pt" height="512.000000pt" viewBox="0 0 512.000000 512.000000"
 preserveAspectRatio="xMidYMid meet">

<g transform="translate(0.000000,512.000000) scale(0.100000,-0.100000)"
fill="#000000" stroke="none">
<path d="M2377 5109 c-193 -22 -381 -79 -562 -169 -759 -380 -1105 -1280 -799
-2075 146 -377 431 -690 799 -876 l140 -71 5 -357 5 -356 73 -3 72 -3 0 -599
0 -600 450 0 450 0 0 600 0 599 73 3 72 3 5 358 5 358 66 29 c376 166 692 488
854 872 49 115 96 284 116 413 15 100 15 344 0 450 -39 277 -150 546 -320 775
-78 107 -250 273 -361 352 -332 234 -750 343 -1143 297z m441 -314 c168 -33
342 -104 487 -200 307 -204 514 -514 587 -880 26 -130 28 -352 4 -480 -93
-503 -441 -904 -918 -1059 -161 -52 -223 -61 -428 -61 -166 1 -196 4 -290 27
-360 90 -647 292 -839 588 -241 371 -282 854 -109 1262 189 448 611 761 1108
822 70 9 317 -3 398 -19z m-258 -2980 c91 0 195 4 233 8 l68 9 -3 -164 -3
-163 -295 0 -295 0 -3 163 -3 164 68 -9 c38 -4 142 -8 233 -8z m150 -1065 l0
-450 -150 0 -150 0 0 450 0 450 150 0 150 0 0 -450z"/>
<path d="M1740 4071 l0 -150 73 -3 72 -3 3 -602 2 -603 150 0 150 0 -2 753 -3
752 -222 3 -223 2 0 -149z"/>
<path d="M2864 4210 c-216 -33 -389 -191 -439 -402 -21 -91 -21 -596 0 -687
50 -211 226 -372 443 -403 158 -23 323 32 436 146 68 68 118 153 141 241 22
86 22 634 0 720 -66 250 -327 424 -581 385z m176 -320 c46 -24 85 -66 104
-112 23 -55 23 -571 1 -626 -38 -89 -140 -151 -231 -138 -87 11 -147 56 -183
136 -19 42 -21 65 -21 316 l0 270 26 52 c57 115 191 160 304 102z"/>
</g>
</svg>
