<?xml version="1.0" encoding="UTF-8"?>
<svg id="Livello_1" xmlns="http://www.w3.org/2000/svg" version="1.1" viewBox="0 0 1280 728">
  <!-- Generator: Adobe Illustrator 29.8.3, SVG Export Plug-In . SVG Version: 2.1.1 Build 3)  -->
  <path d="M1229.98,0l2,.95.6,269.62c2.92,16.21,19.22,21.68,33.59,24.18l12.43,2.01,1.38,2.24c-.05,1.99.06,4.01,0,6,0,.13-1,1.13-1.04,2.42-.45,12.55-.94,25.03-.95,37.59-41.92.91-93.73-13.17-101.75-60.76-.15-92.58-4.08-186.12-1.29-278.8.06-1.9-.09-3.79,1.04-5.45h54Z"/>
  <path d="M1229.98,0h50v299c-18.91-3.02-45.12-5.31-49.38-28.21l-.62-270.79Z" fill="#fefefe"/>
  <path d="M58,0v2l-.96,1.98L3.56,3.04c-.37,1.87-1.22,3.19-2.56,3.96-.28.87-.62.86-1,0V0h58Z" fill="#717171"/>
  <path d="M1,39h-1V7h1c2.83,9.81,3.16,22.34,0,32Z" fill="#aaa"/>
  <path d="M897.99,727v1h-17v-1l3.78-1.9c4.08,1.25,8.49,1.88,13.22,1.9Z" fill="#c5c0ef"/>
  <path d="M458.59,121.41c8.13,6.06,15.06,13.86,21.9,21.3,1.26.18,15.24-15.35,17.98-17.75,42.62-37.15,109.35-38.72,154.85-5.8,41.31,29.88,60.01,84.73,47.39,134.05-.33,1.3-.63,3.5-1.67,4.28l-180.05.51c13.17,24.41,45.01,38.48,72.05,33.54,15.69-2.86,30.57-10.93,41.45-22.53l26.09,44.96c1.28,3.91-6.8,8.56-9.67,10.45-53.78,35.29-118.96,25.41-162.94-19.9-1.86-1.91-1.92-5.66-5.5-6.34-14.36,17.38-33.6,32.1-54.93,39.86-68.11,24.77-144.04-13.64-162.98-83.55-4.14-15.26-5.98-41.24-3.31-56.75.36-2.1,3.03-12.68,3.99-13.51l180.75-1.25c-24.45-40.12-82.83-46.66-114.5-11.01-2.78-5.74-27.54-45.68-26.07-47.98.73-1.14,9.57-7.4,11.44-8.63,44.12-28.86,101.91-25.1,143.72,6.04Z"/>
  <path d="M487.99,402c3.11,1.64,4.05,3.39,2.82,5.25,10.34,1.89,13.49,15.36.67,8.31l-3.5-.2c2.45,1.28,3.79,3.09,4.02,5.42l-.02,75.89c-.76,2.88-2.12,3.81-4.6,5.15,4.05,7.42-3.51,9.06-9.39,6.18-42.96-23.41-95.13-42.8-138.91-9.42-48.52,36.99-33.17,103.53,20.93,124.9,36.38,14.37,67.27,3.41,99.98-13.48,5.01-.49,4.67,6.74-1.41,5.61,4.52,1.21,8.54,4.61,2.79,8.53-.63,25.89-.83,51.86-.61,77.93,3.67.86,4.6,3.52,2.78,7.98l3.48-.05c3.5-2.75,12.49-3.2,7.97,2-50.73,18.29-99.56,20.52-151.21,3.71-169.12-55.04-172.32-260.43-4.31-319.73,57.63-20.34,112.21-15.12,168.52,6.02Z" fill="#084e43"/>
  <path d="M903.99,727l-18.77-1c-8.05-5.99,11.14-6.07,13.77-5.68v-81.11c1.77-4.97-6.8-5.72-10.73-5.12-2.78-.23-5.43-1.41-3.27-4.09,3.76.52,7.31-.86,11-1l6.56.72c3.75,1.59,1.29,2.94-1.56-.72,3.92-2.16,8.64-2.17,12.96-3.54,27.16-8.63,50.86-32.64,55.79-61.21,8.23-47.72-42.93-87.62-87.74-83.24-.13-1.33.56-2.48,2.07-3.45l-.06-91.68c-5.8.89-11.14.27-16.01-1.87,1.04-1.66,3.8-1,5.49-1.02,75.76-.94,148.73,25.95,188.68,93.35,71.49,120.6-33.68,243.88-158.17,250.67Z" fill="#564896"/>
  <path d="M58,2c0,32.13,1.19,64.45,2.04,96.46.24,9.12-1.07,20.41-.09,29.09.13,1.11.32,3.19,1.56,3.45s15.43-13.25,18.58-15.4c28.27-19.37,73.93-26.23,106.16-14.34,39.8,14.68,56.71,52.97,58.74,93.26v150.49s-57.99,0-57.99,0v-155.5c0-2.93-4.6-16.62-6.12-19.88-20.15-43.05-87.76-31.17-114.39-.63-.93,1.07-6.49,7.98-6.49,8.51v167.5H3c-.23-7.82.3-15.72.04-23.54C-.05,228.29.67,132.43,1,39c.04-10.62-.37-21.4,0-32,.07-1.99-.06-4.01,0-6.01l57,1.01Z"/>
  <path d="M1021.78,96.3c90.13-6.66,162.05,71.16,135.47,160.47-31.87,107.05-187.84,119.73-238.44,21.91-42.06-81.31,12.69-175.7,102.97-182.38Z"/>
  <path d="M733.49,95l65.55,179.45c1.48,2.1,2.41,14.99,2.98,15.54.27.26,2.57-.17,3.46.04l73.01-195.04h53.5l-99.49,249.01-2.95,1.05c-15.83-1.5-34.68,1.8-50.11,0-1.84-.21-2.13-.11-3.34-1.66-1.72-2.19-5.1-11.93-6.59-15.41-30.96-72.56-63.46-150.26-91-224-1.07-2.85-2.37-5.92-2.52-8.98h57.5Z"/>
  <path d="M477.99,508c2.28.21,7.31.06,8.56-1.97,1.17-1.91-1.77-3.02-1.51-4.42.35-1.86,5.03-2.61,4.96-5.1v-76.02c.45-2.31-6.23-4.51-6-4.99,3.87-4.28,10.43-1.79,13.99,1.5.77-9.39-15.49-7.84-17.53-10.96-2.09-3.19.61-6.53,3.25-2.23.37.61-.11,1.96.9,2.25,1.37.4,3.93-.13,5.41-.55l-2.02-3.52c41.26,15.49,90.13,43.73,125.91,69.59,1.41,1.02,5.16,3.25,5.16,4.91l-87.81,62.33c-1.93.43-3.36-.89-4.93-1.66-16.02-7.84-32.32-20.45-48.32-29.17Z" fill="#1b5157"/>
  <path d="M824.99,612l-.25,1.79c8.7,1.79,15.03,8.05,2.86,11.12-2.69,2.64-.64,65.96.11,75.22,3.46,4.02,4.41,7.96-2.3,8.75,10.73,5.7-1.2,9.6-7.21,4.69l-7.2-.57c-22.52-7.53-44.98-16.12-65-29-.46-1.56-.31-2.49,1-3.37-7.75-2.05-12.6-8.59-1.36-8.64-1.73-.75-3.55-2.21-3.61-4.24-.94-30.12-.66-61.38.77-91.12-3.75-.35-5.01-1.56-3.8-3.62,2-1.42,9.56-8.12,11.32-7.84l74.68,46.84Z" fill="#415081"/>
  <path d="M623.99,501c7.89-.51,10.86,4.74,3.29,9.81l2.06,2.59c.71,30.4.93,60.96.64,91.69l1.01,4.64c-1.55,3.23-2.15,6.55-1.8,9.95-2.53,1.52-3.27,3.29-2.2,5.31-22.36,15.38-44.83,30.85-68,45-1.1-.8-1.61-2.18-1.52-4.15-7.18,5.55-10.85,5.11-11.02-1.33-.77-5.96,2.54-8.28,9.93-6.94-.35-31.59-.65-63.27-.9-95.04-10.92.46-10-4.47-2.71-10.18l-.78-.36c24.16-16.66,47.93-34.18,72-51Z" fill="#22525f"/>
  <path d="M867.99,384c5.99-.12,12.02.09,18,0l.07,95.43c-.04.21-3.58,1.48-4.07,1.57-6.13,1.15-13.86.95-20.25,2.25-19.06,3.89-44.58,15.37-61.75,24.75-6.8.26-2.33-4.34.94-6.97-4.6-5.21,1.18-9.89,6.06-7.53l-2-.69v-90.59l2-1.22c-.34-2.08,1.44-2.73,5.33-1.96-2.29-.2-3.4-1.21-3.33-3.04,19.91-6.46,37.74-11.59,59-12Z" fill="#4d4c8d"/>
  <path d="M808.99,396l7.01,2v2.99c-.43.45-9.01-.45-9.01,0v92.5c0,1.68-6.54,1.02-5.99,3.99.67,3.59,5.84-2.03,6.71-2.29,3.68-1.12,6.88.98,4.36,4.19-.75.95-7.54,1.95-9.28,2.71-1.01.44-.91,1.5-1.49,1.91-2.71,1.9-4.87-.41-1.3,4.01-17.89,9.77-35.89,21.83-53,33-10.09,1.18-26.15-8.32-7.95-12.83-2.76-28.31-2.88-57.65-1.55-86.26.17-3.58.69-6.99,1.89-10.24-2.7.57-4.5.01-5.39-1.66,18.04-10.78,37.84-20.38,57.48-28.05,1.6-.63,3.42-.54,4.52-.95,3.33-.07,6.33-1.4,9-4,1.29-.44,2.7-.58,4-1Z" fill="#3e517f"/>
  <path d="M733.99,430c11.33-1.62,6.52,2.06,5.93,7.43-2.57,23.37-.52,60.56.03,85.11.05,2.19,1.42,5.28,1.12,6.82-.41,2.17-7.99.28-8.06,4.08-.09,4.61,2.61,2.92,5.19,3.8,2.91.99,6.13,3.97,8.3.77l.49,2.99c-18.2,11.88-36.11,24.63-54,37-2.69.13-4.03,1.13-4,3-1,.69-2.02,1.32-3,2-1.9-1.65-4.22-2.88-6.97-3.69l-3.86-7.3-.09-87.4c-3.18-4.32-3.05-7.7.37-10.14l-3.41-3.14c-2.28,1.23-3.96,1.12-5.03-.33,9.22-7.05,19.2-13.32,29.08-19.42,6.23-3.85,32.99-20.88,37.92-21.58Z" fill="#365276"/>
  <path d="M824.99,612c4.85.73,15.37,7.31,21.02,9.48,14.67,5.64,24.57,5.54,38.98,8.52.16.03.45,1.63,2.47,1.99,2.45.44,5.16-.44,7.79.25,3.61.94,7.24,6.18,13.73,3.77,3.74,2.86-7.68,1.67-8,1.99v85c-5.34.06-9.67-1.87-14.99.02-4.19,4.61,17.28,1.88,18,3.99-1.99.11-4.01-.07-6,0-5.53.18-11.47.2-17,0-25.82-.94-46-5.98-70-14,2.12-1.14,5.25-1.39,7.57-1.08,1.84.24,1.32,1.87,2.12,2.06,2.13.5,5.02-.26,7.31.02.93-1.94-4.03-3.57-4.77-3.72-4.83-.96-8.36,1.92-7.23-4.27,4.44-.67,9.07,2.66,13.02-.51l-3.29-4.71c.37-22.7-2.99-49.86-.72-72.29.64-6.31,1.05-5.02,5.42-6.58,7.7-2.75-7.55-7.11-8.91-6.92-3.51.49,1.4,4.15,1.48,4.52.78,3.58-7.09,3.26-7.03-1.03.02-1.75,3.49-3.72,3.18-6.34.44-.38,4.81-.31,5.86-.15Z" fill="#504a90"/>
  <path d="M551.99,552c2.28-.67,8.47,1.07,8.73,3.47.72,6.73-5.3-1.78-5.69-2-3.91-2.24-2.74,1.39-4.01,3.88-.46.9-2.06.3-2.04,1.17.11,4.98,7.7-1.79,8.99,5.02.77,28.63-.91,57.4-.01,86.01.26,8.2,3.52,11.93-8.95,9.45-.29,3.59-1.69,7.14,1.49,9.99,2.87-5.71,11.78-8.17,8.5,1.02-15.38,9.4-30.78,18.1-47,26-1.54-.28-1.87-1.1-1.4-2.39-3.81,4.47-21.22,10.56-15.76.03l9.38-5.21c-.84-1.52-1.62-3.2-2.34-5.04l.14-87.49c-1.71-2.03-4.05-4-7.02-5.91,18.41-13.49,38.23-25.06,57-38Z" fill="#165153"/>
  <path d="M666.99,471c.96-.41,4.87-1.94,5.36-1.85,1.36.24,5.78,7.54,7.52,1.12.74-2.72-3.31-6.14,3.17-3.82,7.33,2.63-.66,6.4-.97,8.18-.4,2.25,4.8,3.2,1.42,5.36-2.82.43-3.17-7.19-7.18-3.67-4.32,3.79.48,4.15.75,8.13v87.01c.62,1.06,2.77,6.08,3.16,6.33,1.98,1.28,5.09-.69,5.78,5.21-19.83,13.71-39.12,28.34-59,42-7.97-3.97-.68-4.64.08-5.6,1.6-2.02-.9-3.98-.83-4.91.07-.98,2.53-1.84,2.76-4.01.16-1.56-1.03-3.87-1.06-5.95-.46-29.35.4-58.74.1-88.09.63-2.51-3.29-4.13-2.99-5.81s4.87-3.62,4.95-6.12c.03-.99-5.61-1.07-6.01-3.51,12.19-8.51,29.84-24.35,43-30Z" fill="#2e526c"/>
  <path d="M738.99,573c1.42,2.23,5.79.76,5.99,1,.51.62-.97,5.78-1.04,7.46-1.17,28.49.97,57.52.02,86.06-.16,2.82,6.57,3.51,7.03,4.99,1.08,3.52-11.67-.49-10,2.98,1.28,2.64,10.23,3.82,10.99,4.52.96.88.86,1.86-1.22,1.7-3.43-.27-2.78,1.73-4.78,2.29-.25.07-.73.03-1,0-2.18-2.61-4.89-3.77-8-5-1.93-1.07-3.52-2.16-5-3-1.97-2.41-4.31-3.74-7-4-.64-.38-2.12-.42-3.31-1.14-21.35-12.97-41.47-28.07-62.65-41.34.71-1.37,1.46-2.33,2.6-3.37,14.78-13.53,42-27.77,59.03-39.48,5.98-4.11,12.18-9.33,18.32-13.66Z" fill="#365276"/>
  <path d="M494.99,590c5.86-1.03,4.77,2.12,9.02,4.7l-.08,87.85c-.9,2.33,4.03,5.33,4.03,5.95,0,.76-12.88,5.97-12.96,8-.07,1.8,2.62,1.11,3.77.81,1.47-.39,6.3-2,7.43-2.59,2.86-1.48,4.58-5.95,7.77-4.23l-1.99,5.5c-12.31,5.99-24.12,11.36-37,16,.23-4.91-6.04-.32-7.55-.05-2.35.42-5.04-.12-7.45.04,7.86-14.58-4.97-3.5-8-6-.88-3.91,6.67-3.18,7.06-4.61,1.33-23.99-1.98-50.21-.1-73.93.12-1.51.16-2.79.72-4.25.5-1.32,3.5-1.1,2.31-3.7-1.27-2.78-6.92.88-4.98-6.51l4.99.99-2-3.99c7.32-3.78,29.04-18.95,35-20Z" fill="#0f504a"/>
  <path d="M900.99,629c2.75.15,5.26.9,7.99,1.01.18,2.62-2.15,3.97-4.5,4.07-2.73.12-1.6-3.27-2.63-3.95-1.16-.77-4.84.89-5.87-1.13,1.64-.06,3.37-.09,5,0Z" fill="#504a90"/>
  <path d="M744.99,684c-2.66-.35-5.87-3.82-8-5l7.48,1.43.52,3.57Z" fill="#415081"/>
  <path d="M804.99,397c.69,2.75-1.44,1.55-2.62,2.34-1.5,1.02-3.33,4.81-6.38,1.66,2.67-1.01,5.82-2.92,9-4Z" fill="#4d4c8d"/>
  <path d="M724.99,672c1.08-.77,5.38-.3,5.96.07.18.11-.91,2.92,1.04,3.93-2.32-1.32-4.66-2.61-7-4Z" fill="#415081"/>
  <path d="M692.99,578c-1.35.93-2.62,2.05-4,3-3.23-2.89,1.38-4.7,4-3Z" fill="#2e526c"/>
  <path d="M452.99,236c-2.45,13.3-9.54,25.96-19.01,35.49-39.27,39.53-111.14,20.09-120.99-35.49h140Z" fill="#fefefe"/>
  <path d="M649.99,205h-141c10.39-42.67,52.35-66.44,94.51-52.02,21.66,7.41,42.36,29.16,46.48,52.02Z" fill="#fefefe"/>
  <path d="M981.33,278.65c-42.07-42.47-23.52-124.28,37.59-136.21,68.34-13.34,110.94,63.22,78.57,120.58-23.49,41.64-82.36,49.75-116.17,15.63Z" fill="#fefefe"/>
  <path d="M731.08,443.91c-3.53-2.66,3.26-6.52,5.89-1.41.02,1.34-4.92,2.14-5.89,1.41Z" fill="#3e517f"/>
</svg>